<svg id="Calque_1" data-name="Calque 1" xmlns="http://www.w3.org/2000/svg" viewBox="0 0 600 600"><defs><style>.cls-1{fill:#dcdcdc;}.cls-2{fill:#fefefe;}.cls-3{fill:#efefef;}</style></defs><path class="cls-1" d="M783.05,839.92c-39.82,0-79.65,0-119.47.08-3,0-3.58-.6-3.58-3.58q.13-296.43,0-592.84c0-3,.6-3.58,3.58-3.58q296.42.13,592.84,0c3,0,3.58.6,3.58,3.58q-.13,296.41,0,592.84c0,3-.6,3.59-3.58,3.58-38.16-.13-76.31-.08-114.47-.08-3.07-4.94-2.78-10.52-2.73-15.94a198.09,198.09,0,0,0-8.13-59.08c-7.2-23.9-19.56-44.34-40.26-59a94.15,94.15,0,0,0-33.48-15.07c-8.43-1.95-16.7-4.47-25.14-6.38a18.43,18.43,0,0,0-7-1.06,9.11,9.11,0,0,1-1.65-.23c-3.25-1.1-6.64-.41-9.93-.81-1.16-.14-2.55-.37-2.62-1.81s1.36-1.71,2.45-2A23.72,23.72,0,0,1,1020,678c19,0,38,0,57,0,6.13,0,6.28-.29,7.29-6.28,2.28-13.49,2.8-27.14,3.77-40.74,1.71-23.91,2-47.88,3.27-71.8,1.12-21.66,1.42-43.34.47-64.92-1.83-41.67-14-79.94-42.07-111.91-13.41-15.28-30.92-23.88-50.2-29.35A127.27,127.27,0,0,0,967,348.21c-35-.62-66.35,8.63-92,34-18.2,18-29.34,39.78-36.2,64-5.06,17.86-7.21,36.13-8,54.7-1.14,27.32,1,54.54,1.43,81.81.26,18.27,1.55,36.56,2.83,54.81.82,11.78,2,23.54,3.54,35.26.54,4,2.42,5.26,6.28,5.24q29.75-.09,59.48,0c2.82,0,5.68-.18,8.28,1.29-.49,2.86-.74,3.28-4.29,3.33A87.83,87.83,0,0,0,892,683.9c-30.67,6.25-59.4,16.19-79.15,42.76-14.39,19.37-21.26,41.58-24.81,65a219.33,219.33,0,0,0-2.24,33.79C785.79,830.38,786,835.5,783.05,839.92Z" transform="translate(-660 -240)"/><path class="cls-2" d="M783.05,839.92c1.39-22.66.93-45.47,6.89-67.7,6.1-22.75,15.75-43.4,33.18-59.78,8.06-7.58,17.13-13.86,27.48-17.72,12.26-4.57,24.17-10.4,37.33-12.2,6.4-.88,12.81-1.81,19.32-1.59,1.92.07,4,.67,5.73-.92-3.32-1-2.8-3.59-2.33-6.07,1.36-7.2,2.64-14.39,2.56-21.78a139.85,139.85,0,0,0-1.4-14.9,13.92,13.92,0,0,0-4.41-8.74c-20.62-19.21-32.91-43.72-43.83-69.06-1.54-3.56-3.29-6.25-7.15-7.64s-6.64-4.48-8.93-7.78c-8.58-12.33-12.77-25.89-10.81-41,.3-2.32.43-4.64.64-7a14.46,14.46,0,0,1,2-6.63c1.2-1.86,2.68-3.74,5.06-3.57,2.65.19,3.13,2.65,3.69,4.75,2.54,9.48,4.69,19,9.86,27.64,1.91,3.17,3.54,6.38,7,8.57a102.58,102.58,0,0,1-4.76-35.16,43.47,43.47,0,0,1,7-21.09c1.48-2.39,3.48-4.92,6.81-3.95,3,.88,4.08,3.7,4.65,6.58a25.92,25.92,0,0,1,.27,5c0,5.92,0,6,6.13,6q77.68,0,155.37,0c5.45,0,5.53-.06,4.6-5.56a15.17,15.17,0,0,1,1.47-10.18c1.85-3.35,4-3.46,5.83-.08,4.75,8.73,8.63,17.91,7.37,28.06s.4,20.33-2.22,30.4A42.41,42.41,0,0,0,1070,505.55c1.36-5.14,2.25-10.41,3.5-15.59.4-1.61.9-3.44,2.7-3.92,2.1-.57,3.33,1.1,4.52,2.48a16.83,16.83,0,0,1,4,8.5c2.55,16,1.22,31.22-8,45.07-3.38,5.07-7.23,9.61-13.42,11.35-2.38.67-3.33,2.5-4.17,4.58a249.9,249.9,0,0,1-30.21,55c-4.09,5.55-9.16,10.1-13.89,15-2.09,2.18-4.1,4.35-4.51,7.55-.86,6.76-2.18,13.52-1.49,20.36.8,7.92,1.17,15.86,1.83,23.78.2,2.33,1.65,1.6,2.78,1.69,3.78.31,7.62-.53,11.37.51h0c2.19,1.33,4.8-.28,7,1,27.49,5.66,54.55,12.14,74.63,34.16,15.45,16.94,24.24,37,29.31,59.08a214.74,214.74,0,0,1,5.11,51.36c0,4.12.58,8.26.9,12.39Z" transform="translate(-660 -240)"/><path class="cls-3" d="M1025,682c-1.84,0-3.67,0-5.5,0-10,0-10.61,0-11.27-9.77-.84-12.69-2.38-25.46.6-38.16a10.08,10.08,0,0,1,3.07-5.47c21.87-20.11,35.17-45.64,46-72.74.68-1.72,1.07-3.46,3.34-3.87,10.7-2,14.77-10.83,18.5-19.19,4.9-11,5.28-22.79,3.42-34.71-.72-4.6-3.22-7.85-6.77-12.49-3.78,17.63-5.91,35.07-21.72,45.91,2.46-10.07,1.82-20.33,2.76-30.43.73-7.81.53-15.2-2.41-22.43-1.62-4-3.47-7.85-5.44-12.28-3.79,5-3.84,10.1-2.13,15.18,1.17,3.47.8,4.58-3.2,4.58q-81.71-.16-163.4,0c-3.79,0-4.9-.78-4-4.83.69-3.28,1.06-7-.51-10.3-2.07-4.38-3.86-4.76-6.69-.83A38.59,38.59,0,0,0,862,490.88a105.72,105.72,0,0,0,5.58,39.31c-3.88-1.88-7.63-3.73-9.76-7.67a115.76,115.76,0,0,1-11.76-32.64c-.22-1.11.11-2.62-1.24-3-1.56-.45-2.18,1.2-3.15,2-1.65,1.39-2.14,3.43-2.44,5.36-2.64,16.75-1.4,32.87,8.63,47.28,3,4.33,6.17,8.75,12.08,9.68,2.18.34,3.27,2,4,4a237.92,237.92,0,0,0,32.49,59.29c3.35,4.51,7.63,8.38,11.84,12.14a17.17,17.17,0,0,1,5.57,10.82,92.91,92.91,0,0,1-1.53,37c-.49,1.88-1.26,3.87.64,5.51-23.15,0-46.3-.12-69.45,0-4.29,0-6.11-1.1-6.66-5.72-1.77-15-3.07-30-4-45-1.45-23.2-2.23-46.41-3.1-69.63-.44-12-.07-23.94-.8-35.87A238.42,238.42,0,0,1,837.1,445c8.76-31.51,25-58.24,52.13-77.4a114.11,114.11,0,0,1,48.21-19.37c23.95-3.87,47.64-2.48,70.7,5.4a103.33,103.33,0,0,1,52.72,39.71,178.55,178.55,0,0,1,29.74,72.71,204.32,204.32,0,0,1,3.44,36.61c-.13,24.45.14,48.91-1.16,73.33-.8,15.25-1,30.54-2.12,45.75-1.27,17.66-2.08,35.39-4.79,52.94-.57,3.66-1.87,5.4-6.06,5.36-20.81-.22-41.63-.1-62.45-.1h-4.94C1016.52,682,1021.08,679.59,1025,682Z" transform="translate(-660 -240)"/><path class="cls-3" d="M1032,682.93c-2.35-.26-4.88.81-7-1C1027.33,682.23,1029.86,681.21,1032,682.93Z" transform="translate(-660 -240)"/></svg>