<svg id="Calque_1" data-name="Calque 1" xmlns="http://www.w3.org/2000/svg" viewBox="0 0 600 600"><defs><style>.cls-1{fill:#dcdcdc;}.cls-2{fill:#f7f7f7;}.cls-3{fill:#fefefe;}.cls-4{fill:#efefef;}</style></defs><path class="cls-1" d="M763.05,839.92c-33.15,0-66.31,0-99.47.08-3,0-3.58-.6-3.58-3.58q.13-296.43,0-592.84c0-3,.6-3.58,3.58-3.58q296.42.13,592.84,0c3,0,3.58.6,3.58,3.58q-.13,296.41,0,592.84c0,3-.6,3.59-3.58,3.58-32.49-.14-65-.08-97.47-.08-1.74-1.69-1.4-3.88-1.49-6-.21-5,.59-10.12-.82-15.08-1.08-17.12-2.69-34.17-7.27-50.8-5.38-19.52-13.3-37.66-27.73-52.39a75.49,75.49,0,0,0-46.6-22.79,23.33,23.33,0,0,1-7.28-1.63,91.9,91.9,0,0,0-43.2-8.5c-1,0-2,0-3,0-6.84-.14-8.08-1.16-9.05-7.91-1.56-10.76-2.11-21.52-.15-32.31a20,20,0,0,1,6.28-11.55c20.39-19.17,34-42.52,41.72-69.32,2-6.78,3.36-13.61,10.13-17.58,1.4-.82,2.29-2.42,3.12-3.86,10.27-17.56,13.2-35.7,4.16-54.73-.6-7.48.65-14.91.54-22.4a85.61,85.61,0,0,0-3.48-24.61c-1.73-5.54-1.34-6.74,3.72-9.9,7.85-4.9,14.44-11.22,20.69-17.95,1.41-1.53,3.16-2.92,3.6-5.64a50.92,50.92,0,0,1-22.64-5.39,45.61,45.61,0,0,1-12.57-8.89c-21.27-21.45-46.35-35.57-76.61-39.73-5.76-.79-6-1.24-5.26-7.07a11.61,11.61,0,0,0-.92-5.84c-2.24-5.72-4.1-6.28-9.12-2.61-19.32,14.14-40.16,24.63-64.05,28.94a86.43,86.43,0,0,0-39.62,18.11c-10.82,8.8-17.61,19.86-18.29,34.12a21.32,21.32,0,0,1-2.87,9.47c-9.4,16.94-10.59,35.12-8.26,53.85.32,2.63.94,5.28-.3,7.86-7.4,17.67-4.52,34.5,4.21,50.81a21.15,21.15,0,0,0,8.17,8.58c3.26,1.86,4.86,4.74,5.78,8.33,7.14,27.8,19.7,52.64,40.81,72.54,5.64,5.32,7.09,11.86,7.41,18.94a151.32,151.32,0,0,1-1.1,27.9c-.87,6.26-2.37,7.63-8.68,7.84-7.81.26-15.64-.52-23.42.94a78.16,78.16,0,0,0-20,6.11,39,39,0,0,1-11.9,3.55c-27,3.63-45.21,19.67-58.37,42.32-13,22.41-17.49,47.19-19.53,72.65-.69,8.48-.78,16.94-.88,25.42a10.19,10.19,0,0,1-.8,4.88A10.45,10.45,0,0,1,763.05,839.92Z" transform="translate(-660 -240)"/><path class="cls-2" d="M763.05,839.92l.05-1a7.16,7.16,0,0,1,5.46-2l7,0h370.7c9.62,0,9.55,0,9.69-9.6,0-3.22-.91-6.76,2-9.4,2.14,7.27.39,14.71,1,22Z" transform="translate(-660 -240)"/><path class="cls-3" d="M1158,817.87c0,5.67-.13,11.33,0,17,.08,3-1.06,4.36-4.08,4.06-.66-.06-1.33,0-2,0l-388.81,0c-.58-26.21,1.34-52.18,9.09-77.37,7.92-25.7,21.2-47.63,45.28-61.54a68.51,68.51,0,0,1,28.34-8.82c4.23-.38,7.53-2.5,11.14-4.07,13.48-5.89,27.68-6.87,42.07-6.08,4.73.26,6.62-1.5,6.94-5.95.85-11.6,2-23.17.17-34.8-.58-3.62-1.69-6.6-4.44-9.13-21.06-19.39-33.86-43.72-42-70.8-.71-2.38-1.16-4.84-1.66-7.28-.24-1.19-.57-2.32-1.73-2.87-10.94-5.17-14.77-15.32-17.59-25.88-3.35-12.59-4.16-25.22,2.31-37.29,3.58-.23,3.77,2.77,4.43,5a144.31,144.31,0,0,0,5.94,16.43c1.22,2.8,2.49,3.79,5,1.22,12.42-12.81,21.92-27.1,24.22-45.38,1.69-13.45,1.9-13.43,14.74-9.12,4.42,1.49,8.88,2.84,13.26,4.43s8.79,1.76,14,2.52c-2.32-3.33-3.68-6.49-3.21-10.2.86-6.74,4.62-8.71,10.1-4.91,8.21,5.69,16.34,11.5,24.88,16.7,16.89,10.3,34.78,17.55,55.61,16.93-5.19-3.45-9.14-7.95-13.46-12.06-5.16-4.91-8.47-11.09-12-17.11a21.3,21.3,0,0,1-2.11-6.64c-.4-1.93-1.28-4.13.52-5.64s3.86-.39,5.68.31c12.51,4.86,25.48,4.47,38.44,3.16,7.56-.76,8.6-.41,9.56,7.4a131.49,131.49,0,0,0,8,32.38c4.17,10.62,10.95,19.33,18.45,27.65,2,2.25,3.38,2.24,4.55-.78,2.66-6.84,4.68-13.89,7.18-20.77.64-1.73.63-4.78,4.06-3.46,5.64,7.53,6.44,16.37,5.91,25.18-.7,11.72-3.42,23-10.79,32.64-1,1.31-1.93,3.07-3.31,3.65-5.8,2.48-6.43,7.79-7.84,12.87-8.09,29.16-22.41,54.56-45.24,74.84-4.45,4-3.81,9.84-4.4,14.91-1,8.75-.07,17.56,1,26.33.55,4.31,2.31,5.79,6.71,5.54,10.65-.61,21.26,0,31.63,2.88,5.14,1.42,10.38,2.68,15,5.44,3.69,2.21,7.76,1.68,11.62,2.32,26.42,4.33,45,19.34,58.1,42,12.42,21.45,17.68,44.92,19.8,69.35C1157.53,808,1158,812.89,1158,817.87Z" transform="translate(-660 -240)"/><path class="cls-4" d="M1078.91,485.06c-1.45.17-1.65,1.25-2,2.42-2.75,8.2-5.7,16.33-8.36,24.55-1,3.27-1.88,4.19-4.77,1.32-15.8-15.67-24.86-34.59-27.8-56.56-.53-3.94-.25-8.52-2.24-11.58-2.56-3.95-7,0-10.68-.08-12.8-.12-25.66.67-37.69-5.1a9.14,9.14,0,0,0-2.35-.26c3.61,19.48,17.31,31,32.52,43.24-7.29-.43-13.15-.41-18.9-1.18-13.86-1.85-26.47-7.24-38.58-14.09-10.88-6.16-21-13.44-31.17-20.62-2.3-1.62-3.15-1.44-4.48.83a10.24,10.24,0,0,0,1,11.91c1,1.08,2.39,1.82,2.88,4.05a54.23,54.23,0,0,1-16-2c-7.32-2.19-14.63-4.53-21.76-7.3-4-1.57-5.16.12-5.36,3.49A74.3,74.3,0,0,1,870,496.19c-4.13,6.06-9.34,11.18-14.19,16.61-2.44,2.73-3.74,1.77-4.88-1.06-2.53-6.32-5.42-12.5-7-19.18-.48-2-.61-4.39-2.88-5.54a5.7,5.7,0,0,0,.29-3.83c-3.22-21.06-1.87-41.46,9.31-60.29,2.13-3.59,1-7.5,1.66-11.22,2.7-14.58,10.84-25.41,22.82-33.72,12.54-8.69,26.52-13.78,41.36-16.51,21.48-4,39.95-14.22,57.33-26.79,7.91-5.73,10.13-5.17,13.3,4.16.83,2.47,1.24,4.8-.09,7.21-1.21,2.21-.22,2.81,2,3.05,31,3.42,56.81,17.49,78.67,39.25,9.69,9.65,21.08,14.76,34.78,14.75,1.2,0,3-.82,3.52.84.47,1.37-.94,2.33-1.74,3.37a94.5,94.5,0,0,1-26.58,23.81c-2,1.19-2.89,2.23-2,4.71,5.46,14.75,5.11,30,3.34,45.26C1078.89,482.39,1079,483.73,1078.91,485.06Z" transform="translate(-660 -240)"/></svg>