<svg id="Calque_1" data-name="Calque 1" xmlns="http://www.w3.org/2000/svg" viewBox="0 0 600.19 600.19"><defs><style>.cls-1{fill:#dcdcdc;}.cls-2{fill:#fefefe;}</style></defs><title>logo-template</title><path class="cls-1" d="M7,397q0-148-.1-296c0-3.42.68-4.1,4.1-4.09q296,.15,592,0c3.42,0,4.1.67,4.09,4.09q-.15,296,0,592c0,3.42-.67,4.1-4.09,4.09q-296-.15-592,0c-3.42,0-4.1-.66-4.1-4.09Q7.08,545,7,397Z" transform="translate(-6.9 -96.91)"/><path class="cls-2" d="M277.12,566.7c6.23-10.15,12.11-19.76,18-29.35q28.38-46.11,56.81-92.18c2.27-3.66,1.74-5.67-2-7.92-17.78-10.77-35.42-21.78-53.08-32.73-5.08-3.15-5.06-3.41,0-6.79q71-47.37,142.05-94.72c12.28-8.2,24.48-16.52,37.53-24.22-2.12,3.52-4.22,7.06-6.37,10.57q-30.4,49.54-60.82,99.07c-2.53,4.11-4.81,8.44-7.79,12.18-3.4,4.26-.78,6.28,2.32,8.22,6.35,4,12.8,7.76,19.19,11.66,11.35,6.95,22.71,13.88,34,20.9,4.61,2.87,4.56,3.18,0,6.24q-51.87,34.64-103.75,69.28c-23.48,15.74-46.84,31.65-70.29,47.42C281.49,565.31,280.24,566.87,277.12,566.7Z" transform="translate(-6.9 -96.91)"/><path class="cls-2" d="M298.27,516c-2.47,7.16-6.63,9.32-13.52,9.2q-37-.68-74-.09c-20.91.33-38.73-17.52-38.75-38.74q-.1-95.92,0-191.84c0-6.5-.09-13,.05-19.5.06-3-1.05-4.16-4.08-4.1-7.66.13-15.33.1-23,0-6.35-.06-7.95-2.53-7.35-8.7,2-20.79,19.4-35.35,42.38-35.3q107,.26,214,0c25.66-.06,43,19,42.08,41.94-.26,6.65,0,13.33-.05,20,0,3.81-3.68,8.43-7.18,9.08-3,.55-1.74-1.9-1.75-3-.12-8.83,0-17.66-.08-26.49-.1-20.09-14-33-34-31.53-12.28.9-24,13.18-25,26.08-.49,6.85-1.6,7.88-8.6,7.89-57.33,0-114.66.06-172-.11-4.91,0-6.54,1.06-6.53,6.3.17,69,.07,138,.1,207,0,16.79,8.86,27.76,25.06,31.32a30.12,30.12,0,0,0,6.44.52q40,0,80,0Z" transform="translate(-6.9 -96.91)"/><path class="cls-2" d="M294,321h66.47c6.37,0,10.17,2.34,10.34,6.3S366.92,334,360.32,334q-66.22,0-132.44,0c-1.66,0-3.52.28-4.93-.36-3-1.34-5.51-3.45-4.77-7.27s3.56-5.33,7.33-5.33H294Z" transform="translate(-6.9 -96.91)"/><path class="cls-2" d="M328.89,443H228.52a39.67,39.67,0,0,1-4.5-.08c-3.64-.44-5.89-2.54-5.9-6.22s2.46-5.69,5.77-6.54a18,18,0,0,1,4.48-.13c24.66,0,49.32.14,74-.11,6.26-.06,11.73.94,16.67,5,3.16,2.61,6.8,4.66,10.22,6.95Z" transform="translate(-6.9 -96.91)"/><path class="cls-2" d="M303.21,377c-4.33,3.29-8.63,6.6-13,9.84-1.69,1.26-3.72,1.26-5.74,1.25-19.63,0-39.25,0-58.88,0-4.76,0-7.51-2.28-7.51-6s2.75-6,7.5-6q38.64,0,77.28,0Z" transform="translate(-6.9 -96.91)"/><path class="cls-1" d="M371.06,237.16c-6,7-10.5,13.74-12,22-.34,1.93-1.7,2.76-3.6,2.76l-3.5,0H154.15c-7.55,0-8.45-1.2-5.07-8,5.13-10.27,13.2-16.92,25-16.94Q270.54,236.8,367,237C367.94,237,368.93,237.05,371.06,237.16Z" transform="translate(-6.9 -96.91)"/></svg>